<svg width="44" height="44" viewBox="0 0 44 44" fill="none" xmlns="http://www.w3.org/2000/svg">
<circle cx="22" cy="22" r="21.5" fill="#4DBA4D" fill-opacity="0.12" stroke="#4DBA4D" stroke-dasharray="2 2"/>
<path d="M18.341 29.3326H26.4308C28.5614 29.3326 29.4105 28.0281 29.5108 26.4379L29.9122 20.0618C30.0203 18.3944 28.6926 16.9818 27.0175 16.9818C26.5466 16.9818 26.1143 16.7116 25.8982 16.2947L25.3424 15.1754C24.9873 14.473 24.061 13.894 23.2736 13.894H21.5059C20.7108 13.894 19.7845 14.473 19.4294 15.1754L18.8736 16.2947C18.6575 16.7116 18.2252 16.9818 17.7544 16.9818C16.0793 16.9818 14.7515 18.3944 14.8596 20.0618L15.261 26.4379C15.3536 28.0281 16.2105 29.3326 18.341 29.3326Z" stroke="#4DBA4D" stroke-width="1.5" stroke-linecap="round" stroke-linejoin="round"/>
<path d="M21.228 18.5256H23.5438" stroke="#4DBA4D" stroke-width="1.5" stroke-linecap="round" stroke-linejoin="round"/>
<path d="M22.3859 26.2448C23.7677 26.2448 24.8947 25.1178 24.8947 23.7361C24.8947 22.3543 23.7677 21.2273 22.3859 21.2273C21.0042 21.2273 19.8772 22.3543 19.8772 23.7361C19.8772 25.1178 21.0042 26.2448 22.3859 26.2448Z" stroke="#4DBA4D" stroke-width="1.5" stroke-linecap="round" stroke-linejoin="round"/>
</svg>
